<svg xmlns="http://www.w3.org/2000/svg" viewBox="0 0 311.36 100"><defs><style>.cls-1{fill:#fff;}</style></defs><title>DB_Logo_V-Corporativa_BLANCO-RGB</title><g id="Capa_2" data-name="Capa 2"><g id="Capa_1-2" data-name="Capa 1"><polygon class="cls-1" points="237.67 91.81 237.76 91.36 235.66 91.36 235.56 91.81 236.36 91.93 234.42 96.28 233.93 91.92 234.8 91.81 234.88 91.36 232.22 91.36 232.14 91.81 232.98 91.92 230.95 96.23 230.68 91.91 231.51 91.81 231.61 91.36 228.93 91.36 228.83 91.81 229.49 91.89 230.05 97.8 230.69 97.8 232.98 93.02 233.57 97.8 234.22 97.8 236.91 91.92 237.67 91.81"/><path class="cls-1" d="M239.56,93a2.27,2.27,0,0,0-1.05.26,2.64,2.64,0,0,0-.85.68,3.27,3.27,0,0,0-.58,1,3.22,3.22,0,0,0-.21,1.16,1.9,1.9,0,0,0,.44,1.34,1.48,1.48,0,0,0,1.13.46,1.74,1.74,0,0,0,.82-.19,2.87,2.87,0,0,0,.66-.5,3.32,3.32,0,0,0,.49-.66l-.24-.18a2.51,2.51,0,0,1-.54.48,1.34,1.34,0,0,1-.77.22.93.93,0,0,1-.67-.24,1.22,1.22,0,0,1-.3-.78,7.66,7.66,0,0,0,1.64-.62,2.89,2.89,0,0,0,.9-.72,1.25,1.25,0,0,0,.27-.73.88.88,0,0,0-.29-.71A1.27,1.27,0,0,0,239.56,93Zm.09,1.56a2,2,0,0,1-.61.57,4.31,4.31,0,0,1-1.15.51,2.87,2.87,0,0,1,.18-.82,3.09,3.09,0,0,1,.38-.7,2.09,2.09,0,0,1,.47-.47.75.75,0,0,1,.46-.17.44.44,0,0,1,.32.13.57.57,0,0,1,.13.39A1.11,1.11,0,0,1,239.65,94.55Z"/><path class="cls-1" d="M242.41,97.11a.24.24,0,0,1-.14,0,.21.21,0,0,1-.06-.16,2.06,2.06,0,0,1,.08-.49l1.15-5.6-.12-.1-1.84.51,0,.33.77.09-.15.88-.18.88-.61,3c0,.22-.07.41-.1.55a2.6,2.6,0,0,0,0,.35.59.59,0,0,0,.18.46.7.7,0,0,0,.47.15,1.33,1.33,0,0,0,.68-.18,2.41,2.41,0,0,0,.56-.46,4.77,4.77,0,0,0,.45-.58l-.26-.2C242.86,96.89,242.59,97.11,242.41,97.11Z"/><path class="cls-1" d="M245.23,97.11a.27.27,0,0,1-.14,0,.21.21,0,0,1-.06-.16,2.78,2.78,0,0,1,.08-.49l1.16-5.6-.13-.1-1.84.51-.05.33.77.09c0,.29-.09.59-.15.88l-.18.88-.6,3c-.05.22-.08.41-.1.55a1.7,1.7,0,0,0,0,.35.59.59,0,0,0,.18.46.72.72,0,0,0,.47.15,1.3,1.3,0,0,0,.68-.18,2.26,2.26,0,0,0,.57-.46,3.86,3.86,0,0,0,.44-.58l-.26-.2C245.68,96.89,245.41,97.11,245.23,97.11Z"/><path class="cls-1" d="M250.71,97.11a.17.17,0,0,1-.18-.19,1.07,1.07,0,0,1,0-.21c0-.08.05-.18.07-.29l.44-1.8c0-.15.08-.3.11-.45a3.59,3.59,0,0,0,0-.44.71.71,0,0,0-.19-.55.66.66,0,0,0-.49-.19,2,2,0,0,0-1,.3,5.45,5.45,0,0,0-1,.76l.19-.94L248.6,93l-1.8.52-.05.33.81.09-.8,3.81.11.09.95-.07c.06-.35.13-.69.19-1s.13-.68.2-1l.25-1.15a4.32,4.32,0,0,1,.78-.56,1.38,1.38,0,0,1,.58-.19c.2,0,.3.13.3.38a1.61,1.61,0,0,1,0,.34c0,.14-.07.29-.1.44l-.39,1.57-.11.45a1.72,1.72,0,0,0,0,.39.46.46,0,0,0,.16.38.69.69,0,0,0,.43.13,1.47,1.47,0,0,0,.71-.18,2.4,2.4,0,0,0,.6-.46,4,4,0,0,0,.46-.58l-.26-.2C251.2,96.89,250.92,97.11,250.71,97.11Z"/><path class="cls-1" d="M254.89,93a2.27,2.27,0,0,0-1,.26,2.64,2.64,0,0,0-.85.68,3.27,3.27,0,0,0-.58,1,3.22,3.22,0,0,0-.21,1.16,1.9,1.9,0,0,0,.44,1.34,1.48,1.48,0,0,0,1.13.46,1.74,1.74,0,0,0,.82-.19,2.67,2.67,0,0,0,.66-.5,3.32,3.32,0,0,0,.49-.66l-.24-.18a2.11,2.11,0,0,1-.54.48,1.34,1.34,0,0,1-.77.22.93.93,0,0,1-.67-.24,1.22,1.22,0,0,1-.3-.78,7.66,7.66,0,0,0,1.64-.62,2.89,2.89,0,0,0,.9-.72A1.26,1.26,0,0,0,256,94a.89.89,0,0,0-.3-.71A1.27,1.27,0,0,0,254.89,93Zm.09,1.56a2,2,0,0,1-.61.57,4.31,4.31,0,0,1-1.15.51,2.58,2.58,0,0,1,.19-.82,2.73,2.73,0,0,1,.37-.7,2.32,2.32,0,0,1,.47-.47.75.75,0,0,1,.46-.17.44.44,0,0,1,.32.13.53.53,0,0,1,.13.39A1.11,1.11,0,0,1,255,94.55Z"/><path class="cls-1" d="M258.47,93a1.92,1.92,0,0,0-.89.2,1.46,1.46,0,0,0-.57.53,1.31,1.31,0,0,0-.2.72,1.22,1.22,0,0,0,.24.77,4.5,4.5,0,0,0,.62.61,2.08,2.08,0,0,1,.52.5.8.8,0,0,1,.13.44.65.65,0,0,1-.24.53,1,1,0,0,1-.67.2h-.09l-.11-.47a.56.56,0,0,0-.58-.51.42.42,0,0,0-.45.38,1.11,1.11,0,0,0,.4.73,1.43,1.43,0,0,0,.91.26,2,2,0,0,0,1.36-.41,1.31,1.31,0,0,0,.47-1,1.28,1.28,0,0,0-.18-.7,2.64,2.64,0,0,0-.63-.62,4.36,4.36,0,0,1-.56-.51.85.85,0,0,1,0-1,.78.78,0,0,1,.63-.22h0l.12.37a.91.91,0,0,0,.25.39.53.53,0,0,0,.33.13.44.44,0,0,0,.46-.37A1.16,1.16,0,0,0,258.47,93Z"/><path class="cls-1" d="M262.17,93a1.92,1.92,0,0,0-.89.2,1.46,1.46,0,0,0-.57.53,1.31,1.31,0,0,0-.2.72,1.22,1.22,0,0,0,.24.77,4.5,4.5,0,0,0,.62.61,2.08,2.08,0,0,1,.52.5.8.8,0,0,1,.13.44.65.65,0,0,1-.24.53,1,1,0,0,1-.67.2H261l-.11-.47a.56.56,0,0,0-.58-.51.42.42,0,0,0-.45.38,1.11,1.11,0,0,0,.4.73,1.43,1.43,0,0,0,.91.26,2,2,0,0,0,1.36-.41,1.31,1.31,0,0,0,.47-1,1.28,1.28,0,0,0-.18-.7,2.64,2.64,0,0,0-.63-.62,4.36,4.36,0,0,1-.56-.51.85.85,0,0,1,0-1,.78.78,0,0,1,.63-.22h0l.12.37a.91.91,0,0,0,.25.39.53.53,0,0,0,.33.13.44.44,0,0,0,.46-.37A1.16,1.16,0,0,0,262.17,93Z"/><path class="cls-1" d="M271,93l.24-1.68h-4.58l-.08.45.82.1c-.07.4-.14.81-.22,1.21s-.14.82-.22,1.22l-.54,2.87-.8.08-.08.46h4.91l.38-1.69h-.62l-.42,1.17h-2.22l.21-1.24c.07-.41.15-.82.23-1.23v0h1.29l0,.82h.47l.41-2.18h-.47l-.29.85h-1.28l.44-2.35h1.82V93Z"/><path class="cls-1" d="M276.09,96.46a3.58,3.58,0,0,1-.44.48.69.69,0,0,1-.38.17A.33.33,0,0,1,275,97a1,1,0,0,1-.2-.42l-.44-1.37.57-.74c.19-.25.38-.49.58-.72l.06-.07,0,.07a.8.8,0,0,0,.29.29.66.66,0,0,0,.32.08.47.47,0,0,0,.37-.16.61.61,0,0,0,.14-.42.68.68,0,0,0-.27-.42A.78.78,0,0,0,276,93a.93.93,0,0,0-.44.11,1.3,1.3,0,0,0-.42.36l-.41.55c-.16.23-.34.49-.52.8l-.3-1a1.71,1.71,0,0,0-.31-.65.64.64,0,0,0-.52-.21,1.08,1.08,0,0,0-.67.28,2.73,2.73,0,0,0-.66.84l.22.21a1.12,1.12,0,0,1,.37-.4.68.68,0,0,1,.28-.1.29.29,0,0,1,.23.1,1,1,0,0,1,.17.38l.45,1.4c-.18.26-.36.51-.55.75s-.37.48-.58.71a.28.28,0,0,1-.1.09l0-.06a1.14,1.14,0,0,0-.28-.39.52.52,0,0,0-.33-.11.5.5,0,0,0-.33.12.56.56,0,0,0-.21.33.72.72,0,0,0,.29.56.88.88,0,0,0,.54.18.82.82,0,0,0,.42-.1,1.25,1.25,0,0,0,.34-.29,5.29,5.29,0,0,0,.47-.62l.49-.76.33,1a1.16,1.16,0,0,0,.34.59.71.71,0,0,0,.47.16,1.28,1.28,0,0,0,.85-.36,3.8,3.8,0,0,0,.73-.88Z"/><path class="cls-1" d="M280.57,93a1.79,1.79,0,0,0-.9.29,3.89,3.89,0,0,0-.91.78l.2-1-.15-.13L277,93.5l0,.33.81.09-1.18,5.61-.7.11-.08.36h2.55l.08-.36-.8-.11c.05-.25.09-.51.15-.79s.11-.6.19-1a.92.92,0,0,0,.23.09l.25,0a2,2,0,0,0,.87-.21,3.38,3.38,0,0,0,.83-.58,4.22,4.22,0,0,0,.69-.82,4.35,4.35,0,0,0,.49-1,3.42,3.42,0,0,0,.17-1,1.38,1.38,0,0,0-.27-1A.93.93,0,0,0,280.57,93Zm-.27,2.65a3.19,3.19,0,0,1-.4.85,1.39,1.39,0,0,1-1.11.71,1,1,0,0,1-.63-.26l.5-2.39a3.74,3.74,0,0,1,.66-.54,1.06,1.06,0,0,1,.57-.21.5.5,0,0,1,.42.22,1.16,1.16,0,0,1,.14.66A3.3,3.3,0,0,1,280.3,95.64Z"/><path class="cls-1" d="M284.72,93a2.2,2.2,0,0,0-1,.26,2.67,2.67,0,0,0-.86.68,3.27,3.27,0,0,0-.58,1,3.22,3.22,0,0,0-.21,1.16,1.9,1.9,0,0,0,.44,1.34,1.5,1.5,0,0,0,1.14.46,1.73,1.73,0,0,0,.81-.19,2.5,2.5,0,0,0,.66-.5,3.32,3.32,0,0,0,.49-.66l-.24-.18a2.11,2.11,0,0,1-.54.48,1.34,1.34,0,0,1-.77.22.93.93,0,0,1-.67-.24,1.27,1.27,0,0,1-.29-.78,7.55,7.55,0,0,0,1.63-.62,2.78,2.78,0,0,0,.9-.72,1.2,1.2,0,0,0,.28-.73.89.89,0,0,0-.3-.71A1.27,1.27,0,0,0,284.72,93Zm.09,1.56a1.84,1.84,0,0,1-.6.57,4.46,4.46,0,0,1-1.15.51,2.87,2.87,0,0,1,.18-.82,2.75,2.75,0,0,1,.38-.7,2.06,2.06,0,0,1,.46-.47.8.8,0,0,1,.46-.17.41.41,0,0,1,.32.13A.53.53,0,0,1,285,94,1.11,1.11,0,0,1,284.81,94.55Z"/><path class="cls-1" d="M289.57,93a.88.88,0,0,0-.54.21,2.45,2.45,0,0,0-.52.54,5.84,5.84,0,0,0-.46.74l.23-1.37-.16-.13-1.71.52-.05.33.81.09-.8,3.81.12.09.94-.07c.06-.35.13-.69.19-1s.13-.68.21-1l.06-.31a9.5,9.5,0,0,1,.5-.88,4.13,4.13,0,0,1,.66-.78,2,2,0,0,0,.32.24.67.67,0,0,0,.33.08.5.5,0,0,0,.42-.19.76.76,0,0,0,.15-.48.61.61,0,0,0-.28-.29A1,1,0,0,0,289.57,93Z"/><path class="cls-1" d="M291.91,97.11a.18.18,0,0,1-.12,0,.2.2,0,0,1-.06-.15,1.93,1.93,0,0,1,.08-.49l.7-3.32-.15-.12-1.83.52,0,.33.81.09-.54,2.57c0,.17-.05.32-.08.47a2.47,2.47,0,0,0,0,.35.52.52,0,0,0,.18.43.73.73,0,0,0,.45.14,1.37,1.37,0,0,0,.69-.18,2.45,2.45,0,0,0,.57-.46,4.87,4.87,0,0,0,.46-.58l-.27-.2C292.37,96.89,292.1,97.11,291.91,97.11Z"/><path class="cls-1" d="M292.71,91.67a.7.7,0,0,0,.2-.5.64.64,0,0,0-.16-.45.58.58,0,0,0-.44-.17.71.71,0,0,0-.49.2.7.7,0,0,0-.22.51.58.58,0,0,0,.19.46.61.61,0,0,0,.43.17A.64.64,0,0,0,292.71,91.67Z"/><path class="cls-1" d="M296.07,93a2.2,2.2,0,0,0-1,.26,2.67,2.67,0,0,0-.86.68,3.27,3.27,0,0,0-.58,1,3.22,3.22,0,0,0-.2,1.16,1.89,1.89,0,0,0,.43,1.34,1.5,1.5,0,0,0,1.14.46,1.73,1.73,0,0,0,.81-.19,2.5,2.5,0,0,0,.66-.5,3.32,3.32,0,0,0,.49-.66l-.24-.18a2.11,2.11,0,0,1-.54.48,1.32,1.32,0,0,1-.77.22.89.89,0,0,1-.66-.24,1.22,1.22,0,0,1-.3-.78,7.55,7.55,0,0,0,1.63-.62,2.78,2.78,0,0,0,.9-.72,1.2,1.2,0,0,0,.28-.73.89.89,0,0,0-.3-.71A1.27,1.27,0,0,0,296.07,93Zm.09,1.56a1.84,1.84,0,0,1-.6.57,4.46,4.46,0,0,1-1.15.51,2.87,2.87,0,0,1,.18-.82,2.75,2.75,0,0,1,.38-.7,2.06,2.06,0,0,1,.46-.47.8.8,0,0,1,.46-.17.41.41,0,0,1,.32.13.53.53,0,0,1,.13.39A1.11,1.11,0,0,1,296.16,94.55Z"/><path class="cls-1" d="M301.67,97.11c-.11,0-.17-.07-.17-.19a1,1,0,0,1,0-.21,1.77,1.77,0,0,0,.07-.29l.45-1.8c0-.15.07-.3.1-.45a2.32,2.32,0,0,0,0-.44.74.74,0,0,0-.18-.55.68.68,0,0,0-.49-.19,2,2,0,0,0-1,.3,5.2,5.2,0,0,0-1,.76l.2-.94-.16-.13-1.8.52-.05.33.81.09-.8,3.81.12.09.94-.07c.07-.35.13-.69.19-1l.21-1,.25-1.15a4.32,4.32,0,0,1,.78-.56,1.34,1.34,0,0,1,.58-.19c.19,0,.29.13.29.38a1.61,1.61,0,0,1,0,.34c0,.14-.06.29-.1.44l-.39,1.57-.11.45a1.72,1.72,0,0,0,0,.39.46.46,0,0,0,.16.38.72.72,0,0,0,.44.13,1.43,1.43,0,0,0,.7-.18,2.4,2.4,0,0,0,.6-.46,3,3,0,0,0,.46-.58l-.26-.2C302.16,96.89,301.88,97.11,301.67,97.11Z"/><path class="cls-1" d="M306.61,93.21a1.39,1.39,0,0,0-.79-.22,2.22,2.22,0,0,0-1,.25,2.86,2.86,0,0,0-.85.67,3.33,3.33,0,0,0-.79,2.16,1.89,1.89,0,0,0,.43,1.34,1.49,1.49,0,0,0,1.12.47,1.71,1.71,0,0,0,.8-.19,2.51,2.51,0,0,0,.68-.49,2.85,2.85,0,0,0,.5-.67l-.24-.18a2.33,2.33,0,0,1-.55.49,1.12,1.12,0,0,1-.65.21,1,1,0,0,1-.76-.29,1.21,1.21,0,0,1-.28-.88,3.14,3.14,0,0,1,.16-1,2.89,2.89,0,0,1,.48-.86,2,2,0,0,1,.7-.58l.29.41a2.86,2.86,0,0,0,.27.31.56.56,0,0,0,.35.13.57.57,0,0,0,.36-.13.49.49,0,0,0,.18-.36A1,1,0,0,0,306.61,93.21Z"/><path class="cls-1" d="M309.91,93a2.2,2.2,0,0,0-1,.26,2.67,2.67,0,0,0-.86.68,3.27,3.27,0,0,0-.58,1,3.22,3.22,0,0,0-.21,1.16,1.9,1.9,0,0,0,.44,1.34,1.48,1.48,0,0,0,1.13.46,1.74,1.74,0,0,0,.82-.19,2.67,2.67,0,0,0,.66-.5,3.32,3.32,0,0,0,.49-.66l-.24-.18a2.11,2.11,0,0,1-.54.48,1.34,1.34,0,0,1-.77.22.93.93,0,0,1-.67-.24,1.34,1.34,0,0,1-.3-.78,7.45,7.45,0,0,0,1.64-.62,2.89,2.89,0,0,0,.9-.72,1.26,1.26,0,0,0,.28-.73.89.89,0,0,0-.3-.71A1.27,1.27,0,0,0,309.91,93Zm.09,1.56a1.84,1.84,0,0,1-.6.57,4.39,4.39,0,0,1-1.16.51,2.58,2.58,0,0,1,.19-.82,3.08,3.08,0,0,1,.37-.7,2.32,2.32,0,0,1,.47-.47.77.77,0,0,1,.46-.17.42.42,0,0,1,.32.13.53.53,0,0,1,.13.39A1.11,1.11,0,0,1,310,94.55Z"/><path class="cls-1" d="M135.89,12.6s0-.06,0-.1a.45.45,0,0,0,0-.11l0-.23a4.41,4.41,0,0,0-.07-.54,4,4,0,0,0-.09-.48s0-.05,0-.07v0c-.08-.37-.18-.74-.28-1.11,0-.1-.06-.2-.1-.3a1.39,1.39,0,0,0-.06-.19c-.07-.22-.15-.42-.24-.63s-.23-.55-.35-.82-.17-.36-.26-.53-.22-.38-.33-.57l-.15-.28-.12-.17-.38-.57-.3-.4c-.16-.2-.31-.4-.47-.59l0,0-.18-.21v0a13.8,13.8,0,0,0-10-4.61h0l-.3,0h-9.24V0h-4.63V9.26h4.63V83.12h9.58a13.76,13.76,0,0,0,10-4.61,13.62,13.62,0,0,0,3.24-6.42c0-.19.07-.38.11-.58a4.51,4.51,0,0,0,.07-.53l.06-.45c0-.13,0-.28,0-.42s0-.57,0-.85V13.86h0c0-.28,0-.57,0-.84Zm-9.18,56.66h0a3.71,3.71,0,0,1,0,.47,3.25,3.25,0,0,1-.07.45,4.12,4.12,0,0,1-.23.78,1,1,0,0,1-.09.21,2.78,2.78,0,0,1-.27.51l-.06.1-.16.21a.08.08,0,0,1,0,0,1.37,1.37,0,0,1-.19.23,2.5,2.5,0,0,1-.22.24l-.11.11-.22.2s0,0,0,0a3.12,3.12,0,0,1-.35.25,3,3,0,0,1-.38.24c-.15.07-.29.15-.45.21l-.26.1-.2,0a2,2,0,0,1-.35.1l-.43.06h0a3.39,3.39,0,0,1-.45,0V9.26a4.62,4.62,0,0,1,4,2.36l.07.13a4.5,4.5,0,0,1,.42,1.2s0,.05,0,.07,0,.25.05.38a.76.76,0,0,1,0,.15c0,.11,0,.22,0,.33Z"/><path class="cls-1" d="M154.1,0h0c-.26,0-.52,0-.78,0h0a13.83,13.83,0,0,0-12.39,11c0,.19-.07.38-.1.57a5,5,0,0,0-.08.54c0,.15,0,.3,0,.45s0,.27,0,.42,0,.28,0,.42V83.09h9.58c.31,0,.61,0,.91,0a13.75,13.75,0,0,0,9.06-4.56l0,0,.19-.21a13,13,0,0,0,1.29-1.76,12.89,12.89,0,0,0,1-1.88c.14-.31.25-.62.36-.94a12.32,12.32,0,0,0,.44-1.61,3.7,3.7,0,0,0,.1-.58,4.51,4.51,0,0,0,.08-.53c0-.15,0-.3.05-.45s0-.28,0-.42,0-.28,0-.41V0H154.1Zm.31,69.26a3.55,3.55,0,0,1,0,.46,3.25,3.25,0,0,1-.07.45,3.92,3.92,0,0,1-.23.78c0,.08-.06.14-.09.21a2.78,2.78,0,0,1-.27.51l-.06.1-.16.21a.05.05,0,0,1,0,0,2.33,2.33,0,0,1-.19.23,1.7,1.7,0,0,1-.22.24.57.57,0,0,1-.11.11l-.23.2v0a2.8,2.8,0,0,1-.35.25,3,3,0,0,1-.38.24c-.14.07-.3.15-.45.21l-.27.1-.11,0-.08,0c-.12,0-.23.07-.36.09a3,3,0,0,1-.42.06h-.05a3.46,3.46,0,0,1-.46,0v-60a3.55,3.55,0,0,1,0-.46,3.4,3.4,0,0,1,.07-.46,4.12,4.12,0,0,1,.23-.78,1.21,1.21,0,0,1,.09-.2,3.1,3.1,0,0,1,.27-.51l.06-.1.16-.21s0,0,0,0l.19-.24.22-.24.11-.1a2.29,2.29,0,0,1,.23-.21h0l.35-.26.38-.23a4.54,4.54,0,0,1,.45-.21l.27-.1.13,0,.06,0a2.11,2.11,0,0,1,.36-.09,3,3,0,0,1,.42-.06H154a3.19,3.19,0,0,1,.45,0Z"/><path class="cls-1" d="M209.49,0h0c-.26,0-.53,0-.78,0h0a13.83,13.83,0,0,0-12.39,11c0,.19-.07.38-.1.57a5,5,0,0,0-.08.54c0,.15,0,.3-.05.45s0,.27,0,.42,0,.28,0,.42V83.09h9.58c.31,0,.61,0,.91,0a13.75,13.75,0,0,0,9.06-4.56l0,0,.19-.21A13,13,0,0,0,217,76.5a12.89,12.89,0,0,0,1-1.88c.14-.31.25-.62.36-.94a14.13,14.13,0,0,0,.44-1.61,3.7,3.7,0,0,0,.1-.58,4.51,4.51,0,0,0,.08-.53c0-.15,0-.3.05-.45s0-.28,0-.42,0-.28,0-.41V0h-9.54Zm.31,69.26a3.55,3.55,0,0,1,0,.46,3.25,3.25,0,0,1-.07.45,3.92,3.92,0,0,1-.23.78c0,.08-.06.14-.09.21a2.78,2.78,0,0,1-.27.51l-.06.1-.16.21a.05.05,0,0,1,0,0,2.33,2.33,0,0,1-.19.23,1.7,1.7,0,0,1-.22.24.57.57,0,0,1-.11.11l-.23.2v0a2.8,2.8,0,0,1-.35.25,3,3,0,0,1-.38.24c-.14.07-.3.15-.45.21l-.27.1-.11,0-.08,0c-.12,0-.23.07-.36.09a3,3,0,0,1-.42.06h-.05a3.46,3.46,0,0,1-.46,0v-60a3.55,3.55,0,0,1,0-.46,3.4,3.4,0,0,1,.07-.46,4.12,4.12,0,0,1,.23-.78,1.21,1.21,0,0,1,.09-.2,2.49,2.49,0,0,1,.27-.51l.06-.1.16-.21s0,0,0,0a2,2,0,0,1,.19-.24l.22-.24.11-.1a2.29,2.29,0,0,1,.23-.21h0l.35-.26.38-.23.45-.21.27-.1.13,0,.06,0a2.11,2.11,0,0,1,.36-.09l.42-.06h.05a3.44,3.44,0,0,1,.46,0Z"/><path class="cls-1" d="M282.92,73.68a14.13,14.13,0,0,0,.44-1.61,3.7,3.7,0,0,0,.1-.58,4.51,4.51,0,0,0,.08-.53c0-.15,0-.3,0-.45s0-.28,0-.42,0-.28,0-.41,0-.28,0-.42V0h-9.58c-.26,0-.53,0-.78,0h0a13.83,13.83,0,0,0-12.39,11c0,.19-.07.38-.1.57a5,5,0,0,0-.08.54c0,.15,0,.3-.05.45s0,.27,0,.42,0,.28,0,.42V83.09h9.58c.31,0,.61,0,.91,0a13.75,13.75,0,0,0,9.06-4.56l0,0,.19-.21a13,13,0,0,0,1.29-1.76,12.89,12.89,0,0,0,1-1.88C282.7,74.31,282.81,74,282.92,73.68Zm-8.5-4.41a3.55,3.55,0,0,1,0,.46,3.25,3.25,0,0,1-.07.45,3.92,3.92,0,0,1-.23.78c0,.08-.06.14-.09.21a3.56,3.56,0,0,1-.27.51l-.06.1-.16.21a.05.05,0,0,1,0,0,2.33,2.33,0,0,1-.19.23,1.7,1.7,0,0,1-.22.24.57.57,0,0,1-.11.11l-.23.2v0a2.8,2.8,0,0,1-.35.25,3,3,0,0,1-.38.24l-.45.21-.27.1-.11,0-.08,0c-.12,0-.23.07-.36.09l-.42.06h-.05a3.46,3.46,0,0,1-.46,0v-60a3.55,3.55,0,0,1,0-.46,3.4,3.4,0,0,1,.07-.46,4.12,4.12,0,0,1,.23-.78,1.21,1.21,0,0,1,.09-.2,2.49,2.49,0,0,1,.27-.51l.06-.1.16-.21s0,0,0,0a2,2,0,0,1,.19-.24l.22-.24.11-.1a2.29,2.29,0,0,1,.23-.21h0l.35-.26.38-.23a4.54,4.54,0,0,1,.45-.21l.27-.1.13,0,.06,0a2.11,2.11,0,0,1,.36-.09,3,3,0,0,1,.42-.06h0a3.44,3.44,0,0,1,.46,0Z"/><rect class="cls-1" x="302.12" y="0.01" width="9.24" height="32.31"/><rect class="cls-1" x="288.27" y="50.78" width="9.24" height="32.31"/><path class="cls-1" d="M181.8,0H168.26V9.24h13.85v60a3.55,3.55,0,0,1,0,.46,3.25,3.25,0,0,1-.07.45,3.92,3.92,0,0,1-.23.78c0,.08-.06.14-.09.21a3.63,3.63,0,0,1-.28.51.47.47,0,0,1,0,.1l-.16.21s0,0,0,0a1.41,1.41,0,0,1-.18.23,1.7,1.7,0,0,1-.22.24.57.57,0,0,1-.11.11l-.23.2v0a2.8,2.8,0,0,1-.35.25,3,3,0,0,1-.38.24l-.45.21-.27.1-.12,0-.07,0c-.12,0-.24.07-.36.09a3,3,0,0,1-.42.06h-.06a3.31,3.31,0,0,1-.45,0v-60h-9.23V83.09h9.58c.3,0,.61,0,.9,0a13.74,13.74,0,0,0,9.07-4.56l0,0,.19-.21a13,13,0,0,0,1.29-1.76,12.89,12.89,0,0,0,1-1.88c.13-.31.25-.62.36-.94a16.55,16.55,0,0,0,.44-1.61,5.4,5.4,0,0,0,.1-.58,4.51,4.51,0,0,0,.08-.53c0-.15,0-.3.05-.45s0-.28,0-.42a2.82,2.82,0,0,0,0-.41c0-.14,0-.28,0-.42V0H181.8Z"/><path class="cls-1" d="M253.05,77.73a11.59,11.59,0,0,0,1-1.43c.16-.26.3-.52.44-.79s.14-.27.2-.41l.21-.46.22-.55c.11-.3.2-.6.29-.9a9.46,9.46,0,0,0,.26-1l0-.12c0-.19.07-.38.1-.57s.06-.36.08-.54,0-.29.05-.43v0c0-.13,0-.27,0-.42a1.09,1.09,0,0,0,0-.18c0-.2,0-.41,0-.61V50.77c0-.28,0-.56,0-.83s0-.29,0-.42,0-.3-.05-.45,0-.36-.08-.53a5.4,5.4,0,0,0-.1-.58c-.12-.55-.27-1.08-.44-1.61-.11-.31-.23-.63-.36-.93a14,14,0,0,0-2.27-3.65l-.18-.2h0l.18-.2a13,13,0,0,0,1.29-1.76,12.89,12.89,0,0,0,1-1.88c.13-.31.25-.62.36-.94a16.55,16.55,0,0,0,.44-1.61,5.4,5.4,0,0,0,.1-.58c0-.17.06-.35.08-.53s0-.3.05-.45,0-.28,0-.42,0-.55,0-.83V13.82c0-.21,0-.42,0-.62s0-.41,0-.61,0-.29-.05-.43a10.45,10.45,0,0,0-.18-1.12,1.6,1.6,0,0,0,0-.21c0-.12-.05-.24-.08-.37-.1-.4-.22-.8-.36-1.19l-.12-.33c-.12-.32-.25-.64-.4-.95l-.2-.4c-.14-.27-.28-.54-.44-.8a12.4,12.4,0,0,0-1-1.43l-.1-.12a11.77,11.77,0,0,0-1-1.12,13.05,13.05,0,0,0-1-.94,13.91,13.91,0,0,0-3.47-2.1l-.35-.14L246.74.8l-.11,0L246.1.59l-.22-.06a3.45,3.45,0,0,0-.4-.11L245,.31l-.16,0L244.39.2a1.26,1.26,0,0,0-.27,0L243.73.1a3.73,3.73,0,0,0-.47,0h-.14l-.54,0h-9.7V36.92h-4.62v9.24h4.62V83.09h9.7l.54,0h.13l.67-.07c.19,0,.38-.06.56-.09l.29,0a5.41,5.41,0,0,0,.55-.12h0l.59-.16.16,0,.53-.18.48-.17.35-.14a14.22,14.22,0,0,0,3.47-2.1,13.05,13.05,0,0,0,1-.94,11.88,11.88,0,0,0,1-1.13Zm-6.32-27V69.25a3.4,3.4,0,0,1,0,.45h0v0a1.59,1.59,0,0,1-.07.38v0c0,.14-.06.27-.1.4s-.08.26-.13.39a.42.42,0,0,0,0,.1.93.93,0,0,0-.05.1,2.1,2.1,0,0,1-.13.26,1.65,1.65,0,0,1-.15.25s0,.07-.05.1a1.16,1.16,0,0,1-.16.21l0,0a.83.83,0,0,1-.08.12l-.1.11a1.7,1.7,0,0,1-.22.24.57.57,0,0,1-.11.11l-.23.2v0s0,0,0,0-.23.17-.35.25-.22.14-.33.21l-.07,0a3.54,3.54,0,0,1-.39.19l-.07,0-.22.08-.39.12a2.7,2.7,0,0,1-.39.08,2.63,2.63,0,0,1-.49,0h-.23V46.16h.51a2,2,0,0,1,.42.07,1.58,1.58,0,0,1,.36.09l.19,0,.27.1.45.21c.13.08.26.15.38.24a2.11,2.11,0,0,1,.35.26h0l.23.2a.57.57,0,0,1,.11.11,2.5,2.5,0,0,1,.22.24,2,2,0,0,1,.18.23.05.05,0,0,1,0,0l.16.21a.37.37,0,0,1,.05.11,3.53,3.53,0,0,1,.28.5l.09.21a3.92,3.92,0,0,1,.23.78,3.5,3.5,0,0,1,.07.45,3.59,3.59,0,0,1,0,.47Zm0-18.44h0a3.55,3.55,0,0,1,0,.46,3.25,3.25,0,0,1-.07.45,3.92,3.92,0,0,1-.23.78l-.09.21a3.63,3.63,0,0,1-.28.51.47.47,0,0,1-.05.1l-.16.21s0,0,0,0a1.41,1.41,0,0,1-.18.23,1.7,1.7,0,0,1-.22.24.57.57,0,0,1-.11.11l-.23.2v0a2.8,2.8,0,0,1-.35.25,3,3,0,0,1-.38.24l-.45.21-.27.1-.19.06-.36.09a3,3,0,0,1-.42.06h-.51V9.24h.23a2.63,2.63,0,0,1,.49.05,1.8,1.8,0,0,1,.39.08l.39.11.22.08.07,0a2.32,2.32,0,0,1,.39.18l.07,0,.33.2.35.26a0,0,0,0,1,0,0l.23.2a3.87,3.87,0,0,1,.43.47.72.72,0,0,1,.11.15,1.77,1.77,0,0,1,.16.22.93.93,0,0,1,.05.1,1.58,1.58,0,0,1,.15.24l.13.26.05.11a.42.42,0,0,1,0,.1c0,.12.09.25.13.38a1.73,1.73,0,0,1,.1.45,1.59,1.59,0,0,1,.07.38v0a3.4,3.4,0,0,1,0,.45Z"/><path class="cls-1" d="M299.82,36.93a2.3,2.3,0,0,1-2.3-2.3V0h-9.24V34.63a11.56,11.56,0,0,0,11.55,11.54,2.3,2.3,0,0,1,2.3,2.3V83.09h9.24V48.47A11.55,11.55,0,0,0,299.82,36.93Z"/><polygon class="cls-1" points="25 47.37 7.14 51.56 7.14 58.28 25 54.09 25 47.37"/><path class="cls-1" d="M67.85,47.4c0-5.57-4.8-9-10.71-7.57L50,41.51V28.06l3.57-.84c2-.46,3.58.66,3.58,2.52v6.72l7.14-1.67V28.06c0-5.57-4.8-9-10.71-7.57L50,21.33V7.88c0-5.57-4.79-9-10.7-7.57l-3.58.84L28.57,2.83,21.43,4.5v6.73l7.14-1.68V23l7.14-1.68V7.87L39.28,7c2-.47,3.57.66,3.57,2.52V23l-28.57,6.7v6.73l28.57-6.71V43.18l-7.14,1.68V34.77l-7.14,1.68V63.34l7.14-1.67V51.58l7.14-1.68V63.35L0,73.41v6.73L42.85,70.08V86.89L28.57,90.24V97l14.28-3.35L50,91.93V68.4l25-5.87V55.81l-7.14,1.67ZM60.71,59.16,50,61.67V48.23l7.15-1.68c2-.46,3.57.67,3.57,2.52Z"/></g></g></svg>