<svg xmlns="http://www.w3.org/2000/svg" viewBox="0 0 308.72 100"><defs><style>.cls-1{fill:#212121;}.cls-2{font-size:9.55px;font-family:SourceSerifPro-SemiBoldIt, Source Serif Pro;font-weight:600;font-style:italic;}.cls-2,.cls-9{fill:#85754e;}.cls-3{letter-spacing:-0.04em;}.cls-4{letter-spacing:-0.01em;}.cls-5{letter-spacing:-0.01em;}.cls-6{letter-spacing:-0.01em;}.cls-7{letter-spacing:0.01em;}.cls-8{letter-spacing:-0.02em;}</style></defs><title>DB_Logo_V-Corporativa_Preferente-RGB</title><g id="Capa_2" data-name="Capa 2"><g id="Capa_1-2" data-name="Capa 1"><path class="cls-1" d="M121.41,0h0l-.3,0H111.9V0h-4.59V9.18h4.59V82.41h9.51A13.72,13.72,0,0,0,134.5,71.47c0-.19.07-.38.11-.57s0-.35.07-.53,0-.3,0-.45,0-.27,0-.41,0-.57,0-.85V13.74h0c0-.28,0-.56,0-.83s0-.28,0-.42a.28.28,0,0,0,0-.09s0-.08,0-.12l0-.23c0-.18,0-.36-.07-.53l-.09-.48a.13.13,0,0,1,0-.06v0c-.08-.37-.18-.74-.28-1.1l-.09-.3-.06-.19-.24-.62c-.11-.28-.23-.55-.36-.82s-.16-.35-.25-.53S133,7,132.9,6.83s-.1-.19-.16-.28-.08-.1-.11-.16l-.38-.57-.3-.4-.47-.58,0,0-.19-.21,0,0A13.71,13.71,0,0,0,121.41,0Zm-.35,9.18a4.59,4.59,0,0,1,4,2.33.83.83,0,0,0,.07.13,4.81,4.81,0,0,1,.42,1.19.17.17,0,0,1,0,.07,2.5,2.5,0,0,1,.06.38s0,.1,0,.15,0,.21,0,.32V68.69a3.62,3.62,0,0,1,0,.46,3.5,3.5,0,0,1-.07.45,4,4,0,0,1-.23.77,1.89,1.89,0,0,1-.09.21,2.7,2.7,0,0,1-.27.5l-.06.1a1.37,1.37,0,0,1-.15.21l0,0a1.81,1.81,0,0,1-.18.23l-.22.24-.11.11-.22.19s0,0,0,0l-.34.25a3.85,3.85,0,0,1-.38.23l-.45.22a2,2,0,0,1-.26.09.76.76,0,0,1-.2.06,2,2,0,0,1-.35.09,3,3,0,0,1-.42.06h0a3.4,3.4,0,0,1-.45,0Z"/><path class="cls-1" d="M152.75,0c-.26,0-.52,0-.77,0h0a13.77,13.77,0,0,0-12.29,10.89c0,.19-.07.38-.1.57s-.06.36-.08.54,0,.29-.05.44l0,.41c0,.15,0,.29,0,.43V82.39h9.15l.3,0h.05q.45,0,.9-.06a13.62,13.62,0,0,0,9-4.51,0,0,0,0,0,0,0l.18-.21a12.07,12.07,0,0,0,1.28-1.75,11.41,11.41,0,0,0,1-1.87,9.42,9.42,0,0,0,.36-.93c.17-.52.32-1,.44-1.59,0-.19.07-.38.1-.57a4.81,4.81,0,0,0,.07-.53l.06-.45,0-.41c0-.14,0-.28,0-.41V0h-9.5Zm.35,68.67a3.55,3.55,0,0,1,0,.46,3.5,3.5,0,0,1-.07.45,3.82,3.82,0,0,1-.23.77l-.09.21a2.7,2.7,0,0,1-.27.5.21.21,0,0,1-.06.1l-.15.21a.05.05,0,0,1,0,0,2,2,0,0,1-.18.23l-.22.24a1.14,1.14,0,0,1-.11.11l-.22.2h0a2.13,2.13,0,0,1-.34.25,3,3,0,0,1-.38.23,4.71,4.71,0,0,1-.45.22A2,2,0,0,1,150,73l-.12,0s-.05,0-.07,0a2.25,2.25,0,0,1-.35.09l-.43.06H149a3.29,3.29,0,0,1-.45,0V13.72a3.67,3.67,0,0,1,0-.46,3.11,3.11,0,0,1,.07-.44,4.12,4.12,0,0,1,.23-.78,1,1,0,0,1,.09-.21,3.06,3.06,0,0,1,.27-.5l.06-.1a1.37,1.37,0,0,1,.15-.21l0,0,.18-.23.22-.24.11-.1a2.09,2.09,0,0,1,.22-.2v0c.11-.09.23-.17.35-.25a3,3,0,0,1,.38-.23,3.68,3.68,0,0,1,.45-.21l.26-.1.13,0,.06,0a2.25,2.25,0,0,1,.35-.09l.43-.06h.05a3.31,3.31,0,0,1,.45,0Z"/><path class="cls-1" d="M207.67,0c-.26,0-.52,0-.77,0h0a13.77,13.77,0,0,0-12.29,10.89c0,.19-.07.38-.1.57s-.06.36-.08.54,0,.29,0,.44l0,.41c0,.15,0,.29,0,.43V82.39h9.15l.3,0h0c.3,0,.6,0,.89-.06a13.61,13.61,0,0,0,9-4.51,0,0,0,0,0,0,0l.18-.21a12.86,12.86,0,0,0,1.28-1.75,13.21,13.21,0,0,0,1-1.87q.19-.45.36-.93a14.33,14.33,0,0,0,.43-1.59,5.72,5.72,0,0,0,.11-.57,4.81,4.81,0,0,0,.07-.53l.06-.45,0-.41c0-.14,0-.28,0-.41V0h-9.5ZM208,68.68a3.55,3.55,0,0,1,0,.46,3.5,3.5,0,0,1-.07.45,3.82,3.82,0,0,1-.23.77l-.09.21a2.7,2.7,0,0,1-.27.5.21.21,0,0,1-.06.1l-.15.21a.05.05,0,0,1,0,0,2,2,0,0,1-.18.23l-.22.24a1.14,1.14,0,0,1-.11.11l-.22.2h0a2.13,2.13,0,0,1-.34.25,3,3,0,0,1-.38.23,4.71,4.71,0,0,1-.45.22,2,2,0,0,1-.26.09.27.27,0,0,1-.12,0s0,0-.07,0a2.11,2.11,0,0,1-.36.09,3,3,0,0,1-.42.06h-.05a3.29,3.29,0,0,1-.45,0V13.72a3.67,3.67,0,0,1,0-.46,3.11,3.11,0,0,1,.07-.44,4.12,4.12,0,0,1,.23-.78,1,1,0,0,1,.09-.21,3.06,3.06,0,0,1,.27-.5l.06-.1a1.37,1.37,0,0,1,.15-.21.05.05,0,0,0,0,0l.19-.23.22-.24.11-.1a2.09,2.09,0,0,1,.22-.2v0c.11-.09.23-.17.35-.25a3,3,0,0,1,.38-.23,3.68,3.68,0,0,1,.45-.21l.26-.1.13,0,.06,0a2.25,2.25,0,0,1,.35-.09l.43-.06h0a3.31,3.31,0,0,1,.45,0Z"/><path class="cls-1" d="M271.74,0c-.25,0-.52,0-.77,0h0a13.69,13.69,0,0,0-9.07,4.53,13.51,13.51,0,0,0-3.21,6.36c0,.19-.08.38-.11.57s-.05.36-.07.54l-.06.44,0,.41c0,.15,0,.29,0,.43V82.39h9.15l.3,0h.05q.45,0,.9-.06a13.62,13.62,0,0,0,9-4.51,0,0,0,0,0,0,0l.18-.21a12.07,12.07,0,0,0,1.28-1.75,11.41,11.41,0,0,0,1-1.87,9.42,9.42,0,0,0,.36-.93c.17-.52.32-1,.44-1.59,0-.19.07-.38.1-.57s.06-.35.08-.53,0-.3.05-.45l0-.41c0-.14,0-.28,0-.41V0h-9.5Zm.35,68.67a3.55,3.55,0,0,1,0,.46,3.5,3.5,0,0,1-.07.45,3.82,3.82,0,0,1-.23.77,1.89,1.89,0,0,1-.09.21,2.7,2.7,0,0,1-.27.5.31.31,0,0,1,0,.1l-.16.21a.08.08,0,0,1,0,0l-.19.23a1.6,1.6,0,0,1-.22.24,1.14,1.14,0,0,1-.11.11l-.22.2h0a2.8,2.8,0,0,1-.35.25,3,3,0,0,1-.38.23,4.71,4.71,0,0,1-.45.22A2,2,0,0,1,269,73l-.11,0-.08,0a2.25,2.25,0,0,1-.35.09l-.43.06H268a3.29,3.29,0,0,1-.45,0V13.72a3.67,3.67,0,0,1,0-.46,3.11,3.11,0,0,1,.07-.44,4.12,4.12,0,0,1,.23-.78,1.89,1.89,0,0,1,.09-.21,3.06,3.06,0,0,1,.27-.5l.06-.1a1.37,1.37,0,0,1,.15-.21l0,0,.18-.23.22-.24.11-.1.22-.2,0,0a3,3,0,0,1,.34-.25,3,3,0,0,1,.38-.23,3.68,3.68,0,0,1,.45-.21l.26-.1.14,0,.05,0a2.11,2.11,0,0,1,.36-.09l.42-.06h.05a3.31,3.31,0,0,1,.45,0Z"/><path class="cls-1" d="M297.28,45.78a2.29,2.29,0,0,1,2.28,2.28V82.39h9.17V48.06a11.45,11.45,0,0,0-11.44-11.44A2.3,2.3,0,0,1,295,34.33V0h-9.17V34.33A11.46,11.46,0,0,0,297.28,45.78Z"/><rect class="cls-1" x="299.56" y="0.01" width="9.16" height="32.04"/><rect class="cls-1" x="285.83" y="50.35" width="9.16" height="32.04"/><path class="cls-1" d="M180.21,0H166.83V9.16h13.73V68.68a3.55,3.55,0,0,1,0,.46,2.34,2.34,0,0,1-.07.45,3.27,3.27,0,0,1-.23.77,1,1,0,0,1-.09.21,2.7,2.7,0,0,1-.27.5.31.31,0,0,1-.05.1l-.16.21a.08.08,0,0,1,0,0,2.11,2.11,0,0,1-.19.23,1.6,1.6,0,0,1-.22.24,1.14,1.14,0,0,1-.11.11l-.22.2h0a2.8,2.8,0,0,1-.35.25,3,3,0,0,1-.38.23c-.14.08-.29.15-.44.22s-.18.07-.27.09a.23.23,0,0,1-.11,0l-.08,0a2,2,0,0,1-.35.09,3,3,0,0,1-.42.06h-.06a3.15,3.15,0,0,1-.44,0V13.73h-9.16V82.39H176l.3,0h0q.45,0,.9-.06a13.62,13.62,0,0,0,9-4.51s0,0,0,0l.18-.21a12.93,12.93,0,0,0,1.29-1.75,12.2,12.2,0,0,0,1-1.87,9.42,9.42,0,0,0,.36-.93,14.38,14.38,0,0,0,.44-1.59,5.67,5.67,0,0,0,.1-.57c0-.18.06-.35.08-.53s0-.3,0-.45l0-.41c0-.14,0-.28,0-.41s0-.28,0-.42V0h-9.51Z"/><path class="cls-1" d="M226.32,36.62v9.16h4.58V82.38h9.62l.54,0h.12c.23,0,.45,0,.67-.07l.55-.08.29-.05c.19,0,.37-.07.54-.12h0l.58-.16.16,0,.53-.18.47-.17.35-.14a14,14,0,0,0,3.44-2.08q.54-.45,1-.93a11.55,11.55,0,0,0,1-1.12l.1-.12a12.17,12.17,0,0,0,1-1.41c.15-.26.3-.52.43-.79s.14-.27.2-.41l.21-.46.21-.54c.11-.3.21-.59.3-.89s.09-.32.13-.48a5,5,0,0,0,.12-.53l0-.12c0-.19.07-.38.1-.57s.06-.35.08-.53,0-.29,0-.43v0c0-.13,0-.27,0-.41a1.09,1.09,0,0,0,0-.18c0-.2,0-.4,0-.61V50.34c0-.27,0-.56,0-.83s0-.28,0-.41,0-.3,0-.44-.05-.36-.08-.54a5.67,5.67,0,0,0-.1-.57,14.38,14.38,0,0,0-.44-1.59,9.38,9.38,0,0,0-.35-.93,13.78,13.78,0,0,0-1-1.87,13,13,0,0,0-1.28-1.74l-.18-.2h0l.18-.2a13.67,13.67,0,0,0,1.28-1.74,14.39,14.39,0,0,0,1-1.87c.13-.3.25-.62.35-.93a14,14,0,0,0,.44-1.6,5.21,5.21,0,0,0,.1-.57c0-.17.06-.35.08-.53s0-.3,0-.44,0-.28,0-.42,0-.55,0-.83V13.7c0-.21,0-.41,0-.61s0-.41,0-.61,0-.29,0-.43a10.09,10.09,0,0,0-.18-1.1c0-.07,0-.14,0-.21s-.06-.24-.09-.37A10.62,10.62,0,0,0,253,9.19l-.11-.33c-.12-.31-.25-.63-.4-.93-.06-.14-.13-.27-.2-.41s-.28-.53-.43-.79a12.17,12.17,0,0,0-1-1.41.58.58,0,0,0-.1-.12,11.55,11.55,0,0,0-1-1.12,12.94,12.94,0,0,0-1-.93,14,14,0,0,0-3.44-2.08L245,.93l-.37-.14-.1,0L244,.58l-.22,0a2.85,2.85,0,0,0-.39-.11l-.49-.11a.41.41,0,0,0-.16,0,3,3,0,0,0-.43-.08l-.27-.05-.39,0a3.57,3.57,0,0,0-.46,0l-.14,0-.54,0H230.9v36.6h-4.58Zm14,9.16h.2a3,3,0,0,1,.42.06,2,2,0,0,1,.35.09,1.06,1.06,0,0,1,.19.06l.27.1.45.21.37.23a3.12,3.12,0,0,1,.35.25v0l.23.2.11.1a2.25,2.25,0,0,1,.21.24,2.11,2.11,0,0,1,.19.23s0,0,0,0l.16.21L244,48a3.36,3.36,0,0,1,.27.49c0,.08.06.14.08.21a3.93,3.93,0,0,1,.24.78c0,.14.05.29.07.44a3.62,3.62,0,0,1,0,.47h0V68.65h0a3.39,3.39,0,0,1,0,.45h0v0c0,.12,0,.25-.07.37v0c0,.13-.06.26-.1.4a2.79,2.79,0,0,1-.14.37l0,.11a.47.47,0,0,0-.05.1,2,2,0,0,1-.13.25,2,2,0,0,1-.14.25l-.06.1a1.16,1.16,0,0,1-.16.21.08.08,0,0,1,0,0l-.08.12-.11.11-.21.24-.11.11-.23.2h0a3.12,3.12,0,0,1-.35.25,3.7,3.7,0,0,1-.33.21l-.06,0-.39.19-.07,0-.22.08-.38.11a1.8,1.8,0,0,1-.39.08,2.63,2.63,0,0,1-.49,0h-.22V45.77Zm-.3-36.62h.22a2.63,2.63,0,0,1,.49.05,1.8,1.8,0,0,1,.39.08l.38.11.22.08.07,0,.39.19.06,0,.33.2.35.26a0,0,0,0,0,0,0l.23.2a4.68,4.68,0,0,1,.43.46.7.7,0,0,1,.1.16l.16.21.06.1c.05.08.1.16.14.24l.13.26a.47.47,0,0,0,.05.1.23.23,0,0,1,0,.11,2.79,2.79,0,0,1,.14.37,3.63,3.63,0,0,1,.1.45c0,.12.05.25.07.37v0a3.39,3.39,0,0,1,0,.45V32.05h0a3.54,3.54,0,0,1,0,.46c0,.16,0,.3-.07.45a4.15,4.15,0,0,1-.24.78,1.67,1.67,0,0,1-.08.2,3.46,3.46,0,0,1-.27.5l-.06.1-.16.21a.05.05,0,0,1,0,0,1.45,1.45,0,0,1-.19.23,1.57,1.57,0,0,1-.21.24l-.11.11-.23.2h0a3.18,3.18,0,0,1-.35.26l-.37.23-.45.21-.27.1-.19,0a2,2,0,0,1-.35.09,3.07,3.07,0,0,1-.42.07h-.05l-.15,0h-.3Z"/><path class="cls-1" d="M297.28,45.78a2.29,2.29,0,0,1,2.28,2.28V82.39h9.17V48.06a11.45,11.45,0,0,0-11.44-11.44A2.3,2.3,0,0,1,295,34.33V0h-9.17V34.33A11.46,11.46,0,0,0,297.28,45.78Z"/><text class="cls-2" transform="translate(226.31 96.91)"><tspan class="cls-3">W</tspan><tspan class="cls-4" x="8.05" y="0">e</tspan><tspan x="12.14" y="0">lln</tspan><tspan class="cls-5" x="23.26" y="0">e</tspan><tspan class="cls-6" x="27.37" y="0">s</tspan><tspan x="31.04" y="0">s </tspan><tspan class="cls-5" x="36.92" y="0">E</tspan><tspan x="42.46" y="0">x</tspan><tspan class="cls-7" x="47.7" y="0">p</tspan><tspan x="52.84" y="0">erien</tspan><tspan class="cls-8" x="73.79" y="0">c</tspan><tspan x="77.81" y="0">e</tspan></text><polygon class="cls-9" points="24.79 46.97 7.08 51.13 7.08 57.79 24.79 53.64 24.79 46.97"/><path class="cls-9" d="M67.27,57V47c0-5.52-4.75-8.88-10.62-7.5l-7.08,1.66V27.82L53.11,27c2-.46,3.54.66,3.54,2.5v6.66l7.08-1.66V27.82c0-5.52-4.75-8.88-10.62-7.5l-3.54.83V7.81c0-5.52-4.75-8.88-10.62-7.5l-3.54.83L28.33,2.8,21.24,4.47v6.66l7.09-1.66V22.8l7.08-1.66V7.81L39,7c1.95-.46,3.54.66,3.54,2.5V22.81L14.16,29.46v6.67l28.33-6.65V42.82l-7.08,1.66v-10l-7.09,1.66V62.81l7.09-1.67v-10l7.08-1.66V62.81L0,72.79v6.67l42.49-10V86.15L28.33,89.47v6.67l14.16-3.32,7.08-1.67V67.82L74.36,62V55.33Zm-7.08,1.66L49.57,61.15V47.82l7.08-1.67c2-.45,3.54.67,3.54,2.51Z"/></g></g></svg>