<svg xmlns="http://www.w3.org/2000/svg" viewBox="0 0 100 129.3"><defs><style>.cls-1{fill:#212121;}</style></defs><title>DB_Logo_V-Corporativa_Preferente</title><g id="Capa_2" data-name="Capa 2"><g id="Capa_1-2" data-name="Capa 1"><polygon class="cls-1" points="9.53 68.76 9.53 77.72 33.33 72.13 33.33 63.17 9.53 68.76"/><path class="cls-1" d="M90.47,63.2c0-7.42-6.39-11.94-14.28-10.09l-9.52,2.24V37.41l4.76-1.11c2.63-.62,4.76.88,4.76,3.36v9l9.52-2.23v-9c0-7.43-6.39-11.94-14.28-10.09l-4.76,1.12V10.51c0-7.43-6.4-11.95-14.28-10.1L47.62,1.53,38.1,3.77,28.57,6v9l9.53-2.23V30.67l9.52-2.24V10.5l4.76-1.12c2.63-.62,4.76.89,4.76,3.37V30.68L19.05,39.62v9l38.09-8.94V57.58l-9.52,2.24V46.37L38.09,48.6V84.47l9.53-2.24V68.78l9.52-2.24V84.48L0,97.89v9L57.14,93.45v22.41l-19,4.47v9l19-4.47,9.53-2.24V91.21L100,83.39v-9l-9.53,2.23ZM81,78.89,66.67,82.24V64.31l9.52-2.24C78.82,61.46,81,63,81,65.44Z"/></g></g></svg>