<svg xmlns="http://www.w3.org/2000/svg" viewBox="0 0 160 160"><defs><style>.cls-1{fill:#212121;}.cls-2{fill:#85754e;}</style></defs><title>DojoBox_Logo_Emblema_Alternativo-RGB</title><g id="Capa_2" data-name="Capa 2"><g id="Capa_1-2" data-name="Capa 1"><path class="cls-1" d="M130.53,92.63V80h-8.42V92.63H94.74a2.1,2.1,0,0,1-2.11-2.11v-2.1H117.9V80H84.21V90.52a10.52,10.52,0,0,0,10.53,10.53h35.79V92.63Z"/><path class="cls-1" d="M63.16,50.53h8.43V42.1H63.16A4.21,4.21,0,0,1,59,37.9H75.8c0,.09,0,.18,0,.27v0A12.56,12.56,0,0,0,80,47.3h0l.19.17a12.7,12.7,0,0,0,3.33,2.07,8.78,8.78,0,0,0,.85.33,12.26,12.26,0,0,0,1.47.4l.53.1.48.07.41,0,.38,0c.25,0,.51,0,.76,0h8.41q.39,0,.78,0l.39,0,.4,0,.49-.07.53-.1a12.43,12.43,0,0,0,5.86-3,12.56,12.56,0,0,0,4.2-9.09V29.47H84.22V21.05H75.79v8.42H50.53V37.9A12.63,12.63,0,0,0,63.16,50.53ZM85.91,37.9h15.14c0,.14,0,.27,0,.41a.11.11,0,0,1,0,0,2.5,2.5,0,0,1-.06.38,3.18,3.18,0,0,1-.08.33,1.21,1.21,0,0,1,0,.18l-.09.24c-.06.14-.13.27-.2.41a2.5,2.5,0,0,1-.21.35c-.08.11-.15.22-.23.32h0a1.71,1.71,0,0,1-.18.2.47.47,0,0,1-.1.1,1.37,1.37,0,0,1-.22.2,1.68,1.68,0,0,1-.21.18l0,0a1.33,1.33,0,0,1-.19.14l-.09,0a2.3,2.3,0,0,1-.46.25.77.77,0,0,1-.19.08,3.53,3.53,0,0,1-.72.22,2.7,2.7,0,0,1-.41.06,3,3,0,0,1-.42,0H88.41a3.1,3.1,0,0,1-.43,0,2.9,2.9,0,0,1-.41-.06,3.26,3.26,0,0,1-.71-.22l-.19-.08a2.3,2.3,0,0,1-.46-.25.26.26,0,0,1-.09,0l-.2-.14,0,0-.22-.18a1.29,1.29,0,0,1-.21-.2.32.32,0,0,1-.1-.1,1.8,1.8,0,0,1-.19-.2h0a3.71,3.71,0,0,1-.23-.32c-.08-.11-.15-.23-.22-.35s-.13-.27-.19-.41a1.17,1.17,0,0,1-.09-.24,1.21,1.21,0,0,1-.05-.18,1.78,1.78,0,0,1-.09-.33,2.47,2.47,0,0,1-.05-.38.09.09,0,0,1,0,0,2.82,2.82,0,0,1,0-.41Z"/><path class="cls-1" d="M109.47,117.57c0-.23,0-.47,0-.7h0v0a12.64,12.64,0,0,0-4.16-8.35,12.51,12.51,0,0,0-5.86-3l-.53-.1-.49-.07-.4,0-.39,0H50.54v8.42a2.53,2.53,0,0,1,0,.28v0c0,.28,0,.56,0,.83a12,12,0,0,0,.67,3.06,12.61,12.61,0,0,0,3.48,5.2s0,0,0,0l.2.17a11.58,11.58,0,0,0,1.6,1.18,12.17,12.17,0,0,0,1.72.89c.28.12.57.23.86.33a11.62,11.62,0,0,0,1.46.4l.53.1.49.07.4,0a2.56,2.56,0,0,0,.39,0l.38,0h46.69v-8.75Zm-46.32.32a2.88,2.88,0,0,1-.42,0,2.7,2.7,0,0,1-.41-.07,3,3,0,0,1-.72-.21l-.19-.08a2.94,2.94,0,0,1-.46-.25l-.09-.05-.2-.14s0,0,0,0a1.2,1.2,0,0,1-.21-.17,1.37,1.37,0,0,1-.22-.2.47.47,0,0,1-.1-.1,1.71,1.71,0,0,1-.18-.2l0,0a3.55,3.55,0,0,1-.23-.31,3.24,3.24,0,0,1-.21-.35c-.07-.13-.14-.27-.2-.41l-.09-.25,0-.1a.64.64,0,0,0,0-.07c0-.11-.06-.22-.08-.33a2.63,2.63,0,0,1-.06-.39.06.06,0,0,1,0,0c0-.14,0-.27,0-.42h37.9a3,3,0,0,1,.42,0,2.7,2.7,0,0,1,.41.06,4.27,4.27,0,0,1,.72.21,1.63,1.63,0,0,1,.19.09,2.25,2.25,0,0,1,.46.24l.09.06a1.33,1.33,0,0,1,.19.14l0,0,.21.17.22.2a.94.94,0,0,1,.1.1c.07.07.12.14.18.21h0c.08.1.15.21.23.32a2.5,2.5,0,0,1,.21.35c.07.13.14.27.2.41l.09.24a.61.61,0,0,1,0,.13s0,0,0,0,.06.21.08.32a2.63,2.63,0,0,1,.06.39.11.11,0,0,1,0,0c0,.14,0,.27,0,.41Z"/><path class="cls-1" d="M30.18,67.37a12.73,12.73,0,0,0,3.49,5.2h0l.19.17a12.56,12.56,0,0,0,1.61,1.18,13.31,13.31,0,0,0,1.72.89c.28.12.56.23.85.33a14.47,14.47,0,0,0,1.47.4,4.51,4.51,0,0,0,.53.09l.48.07.41,0,.38,0,.38,0h88.82V67.37a2.53,2.53,0,0,0,0-.28v0c0-.23,0-.48,0-.71h0v0a12.64,12.64,0,0,0-10-11.3l-.53-.09a3.85,3.85,0,0,0-.49-.07l-.4-.05-.39,0-.38,0H29.47v8.42c0,.09,0,.18,0,.28v0a7.37,7.37,0,0,0,.05.82A12.43,12.43,0,0,0,30.18,67.37Zm87.72-4.21.42,0,.42.07a4.44,4.44,0,0,1,.71.21l.19.08a2.94,2.94,0,0,1,.46.25l.09.05.2.15,0,0,.22.17.21.2a.94.94,0,0,1,.1.1l.19.21a0,0,0,0,0,0,0,3.71,3.71,0,0,1,.23.32c.08.11.15.23.22.35s.13.27.19.41a1,1,0,0,1,.09.24.27.27,0,0,1,0,.12.07.07,0,0,1,0,.06,1.16,1.16,0,0,1,.08.32,2.63,2.63,0,0,1,.06.39.09.09,0,0,1,0,0,2.75,2.75,0,0,1,0,.41h-80l-.43,0-.41-.07a3.91,3.91,0,0,1-.71-.21L40.35,67a2.94,2.94,0,0,1-.46-.25.26.26,0,0,1-.09,0l-.2-.15,0,0a1.84,1.84,0,0,1-.22-.17,1.94,1.94,0,0,1-.21-.2.47.47,0,0,1-.1-.1l-.19-.21h0a3.71,3.71,0,0,1-.23-.32c-.08-.11-.15-.23-.22-.35a3.89,3.89,0,0,1-.19-.41,1,1,0,0,1-.09-.24l0-.11a.14.14,0,0,1,0-.07A1.68,1.68,0,0,1,38,64a2.6,2.6,0,0,1,0-.39.09.09,0,0,1,0,0,2.75,2.75,0,0,1,0-.41Z"/><rect class="cls-1" x="71.58" y="130.53" width="16.84" height="8.42"/><path class="cls-1" d="M59,90.53a2.1,2.1,0,0,1,2.1-2.1H80V80h-19A10.54,10.54,0,0,0,50.52,90.53a2.11,2.11,0,0,1-2.1,2.1h-19v8.43h19A10.54,10.54,0,0,0,59,90.53Z"/><rect class="cls-1" x="63.16" y="92.63" width="16.84" height="8.43"/><rect class="cls-1" x="29.47" y="79.99" width="16.84" height="8.43"/><path class="cls-2" d="M80,8.42A71.58,71.58,0,1,0,151.58,80,71.58,71.58,0,0,0,80,8.42Zm0,134.74A63.16,63.16,0,1,1,143.16,80,63.16,63.16,0,0,1,80,143.16Z"/><path class="cls-2" d="M80,0a80,80,0,1,0,80,80A80,80,0,0,0,80,0Zm0,155.79A75.79,75.79,0,1,1,155.79,80,75.79,75.79,0,0,1,80,155.79Z"/></g></g></svg>