<svg xmlns="http://www.w3.org/2000/svg" viewBox="0 0 70 237.43"><defs><style>.cls-1{fill:#85754e;}</style></defs><title>DojoBox_Logo_Vertical_PreferenteDojoBox_Logo_Vertical_Monocromo_871C</title><g id="Capa_2" data-name="Capa 2"><g id="Capa_1-2" data-name="Capa 1"><path class="cls-1" d="M32.5,116.26a1.25,1.25,0,0,1-1.25,1.25H12.5v5H31.25a6.26,6.26,0,0,0,6.25-6.26A1.25,1.25,0,0,1,38.75,115H57.5v-5H38.75A6.26,6.26,0,0,0,32.5,116.26Z"/><rect class="cls-1" x="40" y="117.51" width="17.5" height="5"/><rect class="cls-1" x="12.5" y="110.01" width="17.5" height="5"/><path class="cls-1" d="M50,95H12.5v5a7.5,7.5,0,0,0,7.5,7.5H57.5v-5A7.5,7.5,0,0,0,50,95Zm-30,7.5a2.5,2.5,0,0,1-2.5-2.5H50a2.5,2.5,0,0,1,2.5,2.5Z"/><path class="cls-1" d="M20,92.51H30a7.46,7.46,0,0,0,5-1.91,7.48,7.48,0,0,0,4.92,1.91H50A7.5,7.5,0,0,0,57.5,85V80h-20v-2.5h-5V80h-20v5A7.5,7.5,0,0,0,20,92.51ZM52.5,85a2.5,2.5,0,0,1-2.5,2.5H40A2.5,2.5,0,0,1,37.5,85Zm-20,0A2.49,2.49,0,0,1,30,87.51H20A2.5,2.5,0,0,1,17.5,85Z"/><path class="cls-1" d="M50,60H12.5v5a7.5,7.5,0,0,0,7.5,7.5H57.5v-5A7.5,7.5,0,0,0,50,60Zm-30,7.5A2.5,2.5,0,0,1,17.5,65H50a2.5,2.5,0,0,1,2.5,2.5Z"/><path class="cls-1" d="M20,42.51H57.5v-5A7.5,7.5,0,0,0,50,30H12.5v5A7.5,7.5,0,0,0,20,42.51ZM50,35a2.5,2.5,0,0,1,2.5,2.5H20A2.5,2.5,0,0,1,17.5,35Z"/><path class="cls-1" d="M20,57.51H57.5V45h-5v7.44h0v.06H20A2.5,2.5,0,0,1,17.5,50H50V45H12.5v5a7.49,7.49,0,0,0,7.5,7.5Z"/><path class="cls-1" d="M20,27.51H50A7.5,7.5,0,0,0,57.5,20V15h0V12.5h-5V15h-40v5A7.5,7.5,0,0,0,20,27.51ZM52.5,20a2.5,2.5,0,0,1-2.5,2.5H20A2.5,2.5,0,0,1,17.5,20Z"/><path class="cls-1" d="M65,5H5V132.51H65ZM60,127.51H10V10H60Z"/><path class="cls-1" d="M0,0V137.51H70V0ZM67.5,135H2.5V2.5h65Z"/><polygon class="cls-1" points="13.12 204.69 13.12 209.54 25.99 206.51 25.99 201.67 13.12 204.69"/><path class="cls-1" d="M56.89,201.68c0-4-3.46-6.45-7.72-5.45L44,197.44v-9.7l2.57-.6A1.92,1.92,0,0,1,49.17,189v4.85l5.14-1.21v-4.85c0-4-3.45-6.46-7.72-5.45l-2.57.6v-9.7c0-4-3.46-6.46-7.73-5.46l-2.57.61-5.15,1.21-5.15,1.21v4.85l5.15-1.21v9.69l5.15-1.21v-9.69l2.57-.61a1.93,1.93,0,0,1,2.58,1.82v9.7l-20.6,4.84v4.85L38.87,189v9.7l-5.15,1.2v-7.27l-5.15,1.21v19.39L33.72,212V204.7l5.15-1.21v9.7L8,220.44v4.85L38.87,218v12.12l-10.3,2.42v4.85L38.87,235,44,233.8v-17l18-4.23v-4.85L56.89,209Zm-5.15,8.49L44,212v-9.7l5.15-1.21a1.93,1.93,0,0,1,2.57,1.82Z"/></g></g></svg>