<svg xmlns="http://www.w3.org/2000/svg" viewBox="0 0 160 159.99"><defs><style>.cls-1{fill:#85754e;}.cls-2{fill:#212121;}</style></defs><title>DojoBox_Logo_Emblema_Monocromo_Preferente-RGB</title><g id="Capa_2" data-name="Capa 2"><g id="Capa_1-2" data-name="Capa 1"><circle class="cls-1" cx="80" cy="80" r="80"/><path class="cls-2" d="M130.53,92.63V80h-8.42V92.63H94.74a2.1,2.1,0,0,1-2.1-2.11v-2.1H117.9V80H84.21V90.52a10.53,10.53,0,0,0,10.53,10.53h35.79V92.63Z"/><path class="cls-2" d="M63.16,50.53h8.43V42.1H63.16A4.21,4.21,0,0,1,59,37.89H75.8a2.53,2.53,0,0,1,0,.28v0A12.56,12.56,0,0,0,80,47.3h0l.2.17a11.58,11.58,0,0,0,1.6,1.18,12.17,12.17,0,0,0,1.72.89c.28.12.57.23.86.33a11.62,11.62,0,0,0,1.46.4l.53.1.49.07.4,0a2.56,2.56,0,0,0,.39,0c.24,0,.5,0,.76,0h8.41c.26,0,.51,0,.77,0a2.56,2.56,0,0,0,.39,0l.4,0,.49-.07.53-.1a12.64,12.64,0,0,0,10.06-12v0a2.53,2.53,0,0,0,0-.28V29.47H84.23V21.05H75.79v8.42H50.54v8.42A12.63,12.63,0,0,0,63.16,50.53ZM85.91,37.89h15.14a2.88,2.88,0,0,1,0,.42.06.06,0,0,1,0,0,2.63,2.63,0,0,1-.06.39,1.23,1.23,0,0,1-.08.33.84.84,0,0,1,0,.17,1.84,1.84,0,0,1-.09.25c-.06.14-.12.27-.19.41l-.22.35a3.55,3.55,0,0,1-.23.31s0,0,0,0a1.8,1.8,0,0,1-.19.2.47.47,0,0,1-.1.1,2.09,2.09,0,0,1-.22.2,1,1,0,0,1-.21.17l0,0-.2.14-.09,0a2.3,2.3,0,0,1-.46.25.77.77,0,0,1-.19.08,3,3,0,0,1-.71.21,2.83,2.83,0,0,1-.42.07,3,3,0,0,1-.42,0H88.41a2.88,2.88,0,0,1-.42,0,4.77,4.77,0,0,1-1.13-.28l-.19-.08a2.3,2.3,0,0,1-.46-.25l-.09,0-.2-.14s0,0,0,0a1.2,1.2,0,0,1-.21-.17,1.37,1.37,0,0,1-.22-.2l-.1-.1a1.12,1.12,0,0,1-.18-.2l0,0a3.55,3.55,0,0,1-.23-.31,3.24,3.24,0,0,1-.21-.35,3.11,3.11,0,0,1-.2-.41l-.09-.25a.84.84,0,0,1-.05-.17,1.23,1.23,0,0,1-.08-.33,2.63,2.63,0,0,1-.06-.39.06.06,0,0,1,0,0,2.88,2.88,0,0,1,0-.42Z"/><path class="cls-2" d="M109.47,117.57c0-.24,0-.48,0-.71h0v0a12.64,12.64,0,0,0-10-11.3l-.53-.09a3.85,3.85,0,0,0-.49-.07l-.4,0-.39,0-.38,0H50.54v8.42c0,.09,0,.18,0,.28v0c0,.28,0,.55,0,.82a12.91,12.91,0,0,0,.67,3.07,12.7,12.7,0,0,0,3.49,5.2h0l.19.17a13.19,13.19,0,0,0,1.6,1.18,12.82,12.82,0,0,0,1.73.89c.27.12.56.23.85.33a14.47,14.47,0,0,0,1.47.4,4.71,4.71,0,0,0,.52.09l.49.07.41.05.38,0,.38,0h46.7v-8.42a2.53,2.53,0,0,0,0-.28Zm-46.31.32-.43,0-.41-.07a3.91,3.91,0,0,1-.71-.21l-.19-.08a2.55,2.55,0,0,1-.46-.25.31.31,0,0,1-.1-.05l-.19-.15,0,0-.21-.17a1.37,1.37,0,0,1-.22-.2l-.1-.1-.18-.21h0a3.81,3.81,0,0,1-.24-.32,4.05,4.05,0,0,1-.21-.35,3,3,0,0,1-.19-.41,1.17,1.17,0,0,1-.09-.24.45.45,0,0,1,0-.11l0-.07a3,3,0,0,1-.08-.32,2.63,2.63,0,0,1-.06-.39v0a2.73,2.73,0,0,1,0-.41h37.9l.42,0,.42.07a4.44,4.44,0,0,1,.71.21l.19.08a2.94,2.94,0,0,1,.46.25l.09,0,.2.15,0,0,.21.17a2.09,2.09,0,0,1,.22.2.94.94,0,0,1,.1.1l.19.21a0,0,0,0,0,0,0,2.62,2.62,0,0,1,.23.32c.08.11.15.23.22.34s.13.28.19.42a1.7,1.7,0,0,1,.09.24.27.27,0,0,1,0,.12.07.07,0,0,1,0,.06,1.16,1.16,0,0,1,.08.32,2.63,2.63,0,0,1,.06.39.09.09,0,0,1,0,0,2.75,2.75,0,0,1,0,.41Z"/><path class="cls-2" d="M30.19,67.37a12.6,12.6,0,0,0,3.49,5.2,0,0,0,0,0,0,0l.2.18a12.14,12.14,0,0,0,1.6,1.17,11.2,11.2,0,0,0,1.72.89,9,9,0,0,0,.86.33,13.64,13.64,0,0,0,1.46.41,4.89,4.89,0,0,0,.53.09l.49.07.41,0,.38,0h89.19V67.37a2.53,2.53,0,0,0,0-.28v0c0-.24,0-.48,0-.71h0v0a12.64,12.64,0,0,0-10-11.3c-.17,0-.35-.06-.52-.09a4.13,4.13,0,0,0-.49-.07l-.41-.05c-.12,0-.25,0-.38,0l-.39,0H29.48v8.42a2.72,2.72,0,0,1,0,.28v0c0,.27,0,.55.05.82A12.1,12.1,0,0,0,30.19,67.37Zm87.71-4.21a3.17,3.17,0,0,1,.43,0,4.88,4.88,0,0,1,1.12.28l.19.08a2.94,2.94,0,0,1,.46.25l.09.05.2.14,0,0a.87.87,0,0,1,.22.17l.21.2a.32.32,0,0,1,.1.1,1.8,1.8,0,0,1,.19.2s0,0,0,0,.16.2.24.32l.21.34c.07.14.13.27.19.42a.85.85,0,0,1,.09.24.56.56,0,0,1,0,.12.11.11,0,0,1,0,0,2,2,0,0,1,.09.33,2.6,2.6,0,0,1,0,.39.06.06,0,0,1,0,0,3,3,0,0,1,0,.42h-80a2.86,2.86,0,0,1-.42,0,2.7,2.7,0,0,1-.41-.06,4.27,4.27,0,0,1-.72-.21L40.35,67a2.54,2.54,0,0,1-.46-.24l-.09-.06-.19-.14a.05.05,0,0,1,0,0,1.2,1.2,0,0,1-.21-.17,2.09,2.09,0,0,1-.22-.2.94.94,0,0,1-.1-.1c-.07-.07-.12-.14-.18-.21h0a2.43,2.43,0,0,1-.24-.32,2.5,2.5,0,0,1-.21-.35c-.07-.13-.14-.27-.2-.41l-.09-.24,0-.11s0-.05,0-.07A3,3,0,0,1,38,64a2.63,2.63,0,0,1-.06-.39.09.09,0,0,1,0,0c0-.13,0-.27,0-.41Z"/><rect class="cls-2" x="71.58" y="130.52" width="16.84" height="8.42"/><path class="cls-2" d="M59,90.52a2.1,2.1,0,0,1,2.1-2.1H80V80H61.06A10.54,10.54,0,0,0,50.53,90.52a2.11,2.11,0,0,1-2.1,2.1H29.48v8.43h19A10.54,10.54,0,0,0,59,90.52Z"/><rect class="cls-2" x="63.16" y="92.62" width="16.84" height="8.43"/><rect class="cls-2" x="29.48" y="79.99" width="16.84" height="8.43"/><path class="cls-2" d="M80,8.42A71.58,71.58,0,1,0,151.58,80,71.57,71.57,0,0,0,80,8.42Zm0,134.73A63.16,63.16,0,1,1,143.16,80,63.15,63.15,0,0,1,80,143.15Z"/><path class="cls-2" d="M80,0a80,80,0,1,0,80,80A80,80,0,0,0,80,0Zm0,155.79A75.79,75.79,0,1,1,155.79,80,75.79,75.79,0,0,1,80,155.79Z"/></g></g></svg>