<svg xmlns="http://www.w3.org/2000/svg" viewBox="0 0 80 271.34"><defs><style>.cls-1{fill:#212121;}.cls-2{fill:#85754e;}</style></defs><title>DojoBox_Logo_Vertical_Alternativo-RGB</title><g id="Capa_2" data-name="Capa 2"><g id="Capa_1-2" data-name="Capa 1"><path class="cls-1" d="M37.26,132.88a1.44,1.44,0,0,1-1.43,1.43l-21.42,0v5.72l21.43,0A7.16,7.16,0,0,0,43,132.87a1.41,1.41,0,0,1,1.42-1.43l21.43-.05v-5.72l-21.43,0A7.15,7.15,0,0,0,37.26,132.88Z"/><rect class="cls-1" x="45.84" y="134.26" width="20" height="5.72" transform="translate(-0.31 0.13) rotate(-0.13)"/><rect class="cls-1" x="14.39" y="125.76" width="20" height="5.72" transform="translate(-0.27 0.05) rotate(-0.12)"/><path class="cls-1" d="M57.21,108.54l-42.86.09v5.72h0A8.57,8.57,0,0,0,23,122.9l42.86-.09h0v-5.72h0A8.57,8.57,0,0,0,57.21,108.54Zm-37.13,5.79,37.14-.07a2.86,2.86,0,0,1,2.87,2.85h0L23,117.18a2.86,2.86,0,0,1-2.87-2.85Z"/><path class="cls-1" d="M65.74,91.39l-13.61,0-9.25,0V88.57H37.16v2.86l-22.86,0,0,5.72a8.57,8.57,0,0,0,8.59,8.55l11.47,0a8.59,8.59,0,0,0,5.66-2.2,8.51,8.51,0,0,0,5.62,2.17l11.53,0a8.58,8.58,0,0,0,8.56-8.59ZM36.35,99.18a2.84,2.84,0,0,1-2,.84l-11.42,0a2.86,2.86,0,0,1-2.86-2.85l17.13,0A2.87,2.87,0,0,1,36.35,99.18Zm20.84.79-11.43,0a2.87,2.87,0,0,1-2.87-2.85l17.15,0A2.84,2.84,0,0,1,57.19,100Z"/><path class="cls-1" d="M57.13,68.55l-42.86.08v5.72h0a8.57,8.57,0,0,0,8.59,8.55l42.86-.09h0V77.1h0A8.57,8.57,0,0,0,57.13,68.55ZM20,74.34l37.14-.08A2.85,2.85,0,0,1,60,77.11h0l-37.14.08A2.86,2.86,0,0,1,20,74.34Z"/><path class="cls-1" d="M57.06,34.26l-42.86.09v5.72h0a8.57,8.57,0,0,0,8.59,8.55l42.85-.09h0V42.81h0A8.58,8.58,0,0,0,57.06,34.26ZM19.93,40.05,57.07,40a2.84,2.84,0,0,1,2.86,2.85h0l-37.14.07a2.84,2.84,0,0,1-2.86-2.85Z"/><path class="cls-1" d="M65.69,65.67h0l0-14.28H59.94l0,8.5h0V60l-37.14.08A2.86,2.86,0,0,1,20,57.2l37.14-.08V51.41l-42.86.08v5.72a8.57,8.57,0,0,0,8.59,8.55l42.86-.09Z"/><path class="cls-1" d="M65.59,17.1h0V14.23H59.85v2.87l-45.7.1v5.71a8.58,8.58,0,0,0,8.59,8.56l34.29-.08a8.57,8.57,0,0,0,8.55-8.59ZM57,25.69l-34.29.07a2.86,2.86,0,0,1-2.86-2.85l40-.08A2.86,2.86,0,0,1,57,25.69Z"/><path class="cls-2" d="M74.29,151.43V5.71H5.71V151.43Zm-62.86-140H68.57V145.72H11.43Z"/><path class="cls-2" d="M0,0V157.15H80V0ZM77.14,154.29H2.86V2.86H77.14Z"/><polygon class="cls-1" points="29.7 230.48 14.99 233.93 14.99 239.47 29.7 236.02 29.7 230.48"/><path class="cls-1" d="M65,238.81V230.5c0-4.59-4-7.38-8.83-6.24l-5.89,1.38V214.56l3-.69A2.2,2.2,0,0,1,56.19,216v5.54l5.88-1.38v-5.55c0-4.59-4-7.38-8.82-6.23l-3,.69V197.93c0-4.59-3.95-7.38-8.82-6.23l-2.95.69-5.88,1.38-5.89,1.38v5.54l5.89-1.38v11.08L38.53,209V197.93l2.95-.69a2.2,2.2,0,0,1,2.94,2.08V210.4l-23.54,5.53v5.54l23.54-5.53V227l-5.89,1.39v-8.32l-5.88,1.39v22.16l5.88-1.38v-8.32l5.89-1.38v11.08L9.11,251.93v5.55l35.31-8.29V263L32.65,265.8v5.54l11.77-2.76,5.88-1.38V247.81L70.9,243v-5.54Zm-5.89,1.38-8.83,2.07V231.18l5.89-1.38a2.2,2.2,0,0,1,2.94,2.08Z"/></g></g></svg>