<svg xmlns="http://www.w3.org/2000/svg" viewBox="0 0 80 271.34"><defs><style>.cls-1{fill:#85754e;}.cls-2{fill:#212121;}</style></defs><title>DojoBox_Logo_Vertical_Alternativo-NEG-RGB</title><g id="Capa_2" data-name="Capa 2"><g id="Capa_1-2" data-name="Capa 1"><path class="cls-1" d="M37.14,132.87a1.43,1.43,0,0,1-1.43,1.43H14.29V140H35.71a7.16,7.16,0,0,0,7.15-7.15,1.43,1.43,0,0,1,1.43-1.42H65.71v-5.72H44.29A7.15,7.15,0,0,0,37.14,132.87Z"/><rect class="cls-1" x="45.71" y="134.3" width="20" height="5.72"/><rect class="cls-1" x="14.29" y="125.73" width="20" height="5.72"/><path class="cls-1" d="M57.15,108.58H14.29v5.71h0a8.56,8.56,0,0,0,8.57,8.57H65.72v-5.71h0A8.57,8.57,0,0,0,57.15,108.58ZM20,114.29H57.15A2.86,2.86,0,0,1,60,117.15H22.86A2.85,2.85,0,0,1,20,114.29Z"/><path class="cls-1" d="M65.71,91.44H42.85V88.58H37.14v2.86H14.28v5.71a8.58,8.58,0,0,0,8.58,8.58H34.33A8.58,8.58,0,0,0,40,103.54a8.52,8.52,0,0,0,5.62,2.18H57.14a8.57,8.57,0,0,0,8.58-8.57ZM36.3,99.17a2.84,2.84,0,0,1-2,.84H22.86A2.86,2.86,0,0,1,20,97.15H37.14A2.82,2.82,0,0,1,36.3,99.17Zm20.84.84H45.71a2.86,2.86,0,0,1-2.86-2.86H60A2.86,2.86,0,0,1,57.14,100Z"/><path class="cls-1" d="M57.15,68.58H14.29V74.3h0a8.57,8.57,0,0,0,8.57,8.57H65.72V77.15h0A8.57,8.57,0,0,0,57.15,68.58ZM20,74.3H57.15A2.85,2.85,0,0,1,60,77.15H22.86A2.85,2.85,0,0,1,20,74.3Z"/><path class="cls-1" d="M57.15,34.3H14.29V40h0a8.56,8.56,0,0,0,8.57,8.57H65.72V42.87h0A8.57,8.57,0,0,0,57.15,34.3ZM20,40H57.15A2.86,2.86,0,0,1,60,42.87H22.86A2.85,2.85,0,0,1,20,40Z"/><path class="cls-1" d="M65.71,65.72h0V51.44H60v8.5h0V60H22.86A2.86,2.86,0,0,1,20,57.15H57.14V51.44H14.28v5.71a8.59,8.59,0,0,0,8.58,8.58H65.71Z"/><path class="cls-1" d="M65.71,17.16h0V14.29H60v2.86H14.29v5.72a8.57,8.57,0,0,0,8.57,8.57H57.14a8.58,8.58,0,0,0,8.58-8.57Zm-8.56,8.56H22.86A2.85,2.85,0,0,1,20,22.87H60A2.86,2.86,0,0,1,57.15,25.72Z"/><path class="cls-2" d="M74.29,151.43V5.71H5.71V151.43Zm-62.86-140H68.57V145.72H11.43Z"/><path class="cls-2" d="M0,0V157.15H80V0ZM77.14,154.29H2.86V2.86H77.14Z"/><polygon class="cls-1" points="29.7 230.48 14.99 233.93 14.99 239.47 29.7 236.02 29.7 230.48"/><path class="cls-1" d="M65,238.81V230.5c0-4.59-4-7.38-8.83-6.24l-5.89,1.38V214.56l3-.69A2.2,2.2,0,0,1,56.19,216v5.54l5.88-1.38v-5.55c0-4.59-4-7.38-8.82-6.23l-3,.69V197.93c0-4.59-3.95-7.38-8.82-6.23l-2.95.69-5.88,1.38-5.89,1.38v5.54l5.89-1.38v11.08L38.53,209V197.93l2.95-.69a2.2,2.2,0,0,1,2.94,2.08V210.4l-23.54,5.53v5.54l23.54-5.53V227l-5.89,1.39v-8.32l-5.88,1.39v22.16l5.88-1.38v-8.32l5.89-1.38v11.08L9.11,251.93v5.55l35.31-8.29V263L32.65,265.8v5.54l11.77-2.76,5.88-1.38V247.81L70.9,243v-5.54Zm-5.89,1.38-8.83,2.07V231.18l5.89-1.38a2.2,2.2,0,0,1,2.94,2.08Z"/></g></g></svg>